<svg xmlns="http://www.w3.org/2000/svg" version="1.1" xmlns:xlink="http://www.w3.org/1999/xlink" xmlns:svgjs="http://svgjs.dev/svgjs" width="100%" height="100%" viewBox="0 0 1000 600"><rect width="1000" height="600" x="0" y="0" fill="#011f3f"/><g><rect width="333.3333333333333" height="333.3333333333333" rx="13.333333333333334" ry="13.333333333333334" y="178.76735566780889" fill="orange" transform="matrix(0.7984916481989521,0,0,0.7984916481989522,-17.31681921037098,24.173806167236776)" x="264.16802978515625"/><path d="M178.23203676494347 407.10008092583246L178.23203676494347 372.2943608933013L198.0542517281781 372.2943608933013Q210.8933285490249 383.89626757081163 225.49193624039464 389.2573381919361Q240.09054393176433 394.6184088130606 256.0362924458782 394.6184088130606L256.0362924458782 394.6184088130606Q262.991937918414 394.6184088130606 268.79289125716923 393.2712679903165Q274.59384459592445 391.9241271675724 278.85520842297205 389.5597575603072Q283.08907958016783 387.1953879530421 285.45344918743297 384.0062382502193Q287.84531146455004 380.81708854739657 287.84531146455004 377.1330707872392L287.84531146455004 377.1330707872392Q287.84531146455004 372.8717069601916 285.12353714920994 369.29765987944194Q282.4292555037217 365.7236127986923 276.463346145855 362.83688246424066Q270.5249294578402 359.9226594599371 261.2049143780392 357.8057238813392Q251.88489929823817 355.68878830274133 238.74340310902025 354.31415481014534L238.74340310902025 354.31415481014534Q223.45747867135253 352.7745652984378 212.73533742910357 349.255503557392Q202.0131961868546 345.73644181634614 195.19501406357836 340.70528323344473Q188.3768319403021 335.6741246505433 185.24266757718317 329.4882739338612Q182.08101054421235 323.3024232171791 182.08101054421235 316.42925575419906L182.08101054421235 316.42925575419906Q182.08101054421235 310.0509563485535 185.76502830436965 304.1125396605387Q189.449046064527 298.17412297252395 196.67961823558204 293.5828471072532Q203.93768307648904 288.99157124198246 214.76979499814567 286.1873189170866Q225.5744142499504 283.38306659219074 239.8980952428009 283.38306659219074L239.8980952428009 283.38306659219074Q248.20088153808086 283.38306659219074 255.10154167091287 284.675222075231Q262.0296944735968 285.9948702281232 267.88563315205585 288.2217764861287Q273.714079160663 290.44868274413426 278.66275973400866 293.4728764278455Q283.5839476375024 296.5245627814087 287.9277894741058 300.0161318526026L287.9277894741058 300.0161318526026L287.9277894741058 286.7646649839769L309.6744913269748 286.7646649839769L309.6744913269748 321.57038501650817L287.9277894741058 321.57038501650817Q285.0410591396542 316.73167512257015 280.3947979346796 312.5802819749302Q275.74853672970505 308.4288888272902 269.7001493622826 305.37720247372704Q263.679254664712 302.32551612016385 256.5036678333608 300.5934779194929Q249.35557367186152 298.83394704897 241.54765543391613 298.83394704897L241.54765543391613 298.83394704897Q233.32734714819193 298.83394704897 227.08651109180602 300.3460438908256Q220.84567503542007 301.8306480628293 216.63929654807626 304.2225103399464Q212.43291806073245 306.5868799472115 210.3159824821346 309.4736102816632Q208.1990469035367 312.38783328596674 208.1990469035367 315.19208561086265L208.1990469035367 315.19208561086265Q208.1990469035367 318.76613269161226 210.0685484534673 321.98277506428695Q211.9655426732498 325.22691010681353 216.74926722748393 327.97617709200557Q221.53299178171807 330.75293674704955 229.75330006744227 332.9248576653513Q237.94611568331456 335.09677858365296 250.62023648504984 336.6363680953605L250.62023648504984 336.6363680953605Q268.4079938792423 338.8632743533661 280.3947979346796 342.2448727451523Q292.3816019901169 345.6264711369385 299.612174161172 350.41019569117265Q306.87023900207896 355.1939202454068 309.97691069534596 361.51723431134843Q313.0560897187611 367.86804104714207 313.0560897187611 375.78592996449515L313.0560897187611 375.78592996449515Q313.0560897187611 381.77933199221377 309.81195467623445 387.8552120294882Q306.59531230355975 393.9585847366145 299.9695788692469 398.87977264010823Q293.3438454349341 403.800960543602 283.19905025957553 406.907632236869Q273.0542550842169 409.9868112602841 259.3079201582567 409.9868112602841L259.3079201582567 409.9868112602841Q250.73020716445754 409.9868112602841 242.83981091695637 408.8871044662073Q234.94941466945522 407.78739767213045 227.66385715869632 405.6154767538288Q220.37829964793744 403.4160631656751 213.50513218495735 400.22691346285234Q206.63196472197723 397.0377637600296 199.9787386178125 392.80389260283386L199.9787386178125 392.80389260283386L199.9787386178125 407.10008092583246L178.23203676494347 407.10008092583246ZM293.728742812861 331.99010689038596L293.728742812861 328.33358180008054L316.6301367995107 328.33358180008054L316.6301367995107 291.6858528874707L320.6990519375949 291.6858528874707L320.6990519375949 331.99010689038596L293.728742812861 331.99010689038596ZM216.19941383044554 314.6147395439723L216.19941383044554 314.6147395439723Q216.19941383044554 312.5802819749302 218.2888567391915 310.930721783815Q220.37829964793744 309.28116159269973 224.03482473824283 308.1264694589191Q227.71884249840016 306.9717773251384 232.69501574159776 306.2844605788404Q237.67118898479535 305.6246365023943 243.47214232355054 305.6246365023943L243.47214232355054 305.6246365023943Q252.26979667616507 305.6246365023943 259.74780287588743 308.37390348758635Q267.25330174546167 311.12317047277844 272.17448964895544 315.4670123093818L272.17448964895544 315.4670123093818Q269.4802080034672 314.31232017560114 266.098609611681 313.21261338152436Q262.68951855004286 312.0854139175956 258.9780081200337 311.17815581248226Q255.2664976900244 310.24340503751694 251.3350459011998 309.72104431033046Q247.43108678222708 309.198683583144 243.664591012514 309.198683583144L243.664591012514 309.198683583144Q233.13489845922848 309.198683583144 226.31671633595224 310.8757364441111Q219.49853421267596 312.5802819749302 216.19941383044554 314.6147395439723ZM184.8852628691082 339.63306910921983L184.8852628691082 339.63306910921983Q188.18438325133866 343.8944329362675 192.58321042764592 347.2760313280537Q196.9820376039532 350.6576297198399 203.2228736603391 353.2694333557724Q209.4362170468731 355.8812369917048 217.79398868185692 357.8057238813392Q226.17925298669263 359.7302107709736 237.36876961642423 360.994873584162L237.36876961642423 360.994873584162Q248.31085221748853 362.2595363973503 256.091277785582 363.6066772200944Q263.87170335367546 364.9538180428385 268.9853399461327 366.5483928942499Q274.09897653858985 368.1429677456613 276.8757361936338 370.1774253147034Q279.62500317882586 372.2118828837455 280.58724662364307 374.9061645292337L280.58724662364307 374.9061645292337Q277.7829942987472 373.2840970079704 274.64882993562827 371.9644488550782Q271.48717290265745 370.6722933720379 266.5659849991637 369.46261589855345Q261.6447970956699 368.252938425069 254.19428356579948 367.0982462912883Q246.74377003592906 365.9160614876557 235.4442827267898 364.5689206649116L235.4442827267898 364.5689206649116Q223.5674493507602 363.1118091627598 214.4123902900707 360.6099762062351Q205.28482389923315 358.10814324971034 198.96150983329144 354.86400820718376Q192.63819576734977 351.6198731646571 189.09164135645204 347.7159140456844Q185.57257961540623 343.7844622568598 184.8852628691082 339.63306910921983ZM184.0329901036987 413.8632777094048L206.93438409034837 413.8632777094048L206.93438409034837 404.29582860093655Q218.53629076785876 410.3992013080629 231.18291889974213 413.5883510108857Q243.85703970147745 416.77750071370843 259.22544214870095 416.77750071370843L259.22544214870095 416.77750071370843Q270.9098268357671 416.77750071370843 281.8519094368314 414.24817508733173Q292.7664993680438 411.746342130807 301.2617343522872 406.7151835479056Q309.7844620063825 401.68402496500414 314.89809859883974 394.04106274617027Q320.0117351912969 386.42559319718833 320.0117351912969 376.170827342422L320.0117351912969 376.170827342422Q320.0117351912969 369.98497662573993 318.7195797082567 364.8988327031347Q317.39993155536445 359.8401814503813 313.55095777609563 354.7265448579241L313.55095777609563 354.7265448579241Q315.86034204365694 356.34861237918744 317.7573362634394 358.7129819864526Q319.62683781337 361.10484426356965 320.9739786361141 363.93658925831744Q322.3486121287101 366.7958269229172 323.1184068845639 369.9299912860361Q323.8882016404177 373.064155649155 323.8882016404177 376.170827342422L323.8882016404177 376.170827342422Q323.8882016404177 386.81049057511524 318.80205771781243 395.0307988608394Q313.743406465059 403.2236144767117 304.94575211244455 408.8871044662073Q296.14809775983 414.5505944557029 284.35374239335613 417.49231012985837Q272.5593870268823 420.43402580401386 259.11547146929325 420.43402580401386L259.11547146929325 420.43402580401386Q244.0494883904409 420.43402580401386 232.2001476842632 417.8222221680814Q220.37829964793744 415.21041853214894 211.00329922843258 410.59164999702637L211.00329922843258 410.59164999702637L211.00329922843258 417.5472954695622L184.0329901036987 417.5472954695622L184.0329901036987 413.8632777094048ZM368.7287461688999 289.76136599783626L368.7287461688999 270.43401909193625L392.3999349114033 270.43401909193625L392.3999349114033 289.76136599783626L368.7287461688999 289.76136599783626ZM374.529699507655 300.208580541566L374.529699507655 296.5245627814087L399.383073053791 296.5245627814087L399.383073053791 275.8500750527645L403.23204683305994 275.8500750527645L403.23204683305994 300.208580541566L374.529699507655 300.208580541566ZM348.4391558181826 407.10008092583246L348.4391558181826 392.61144391387046L374.529699507655 392.61144391387046L371.64296917320337 330.258068689715L348.4391558181826 330.258068689715L348.4391558181826 313.8174521182666L392.3999349114033 313.8174521182666L392.3999349114033 392.61144391387046L414.6415048216069 392.61144391387046L414.6415048216069 407.10008092583246L348.4391558181826 407.10008092583246ZM399.1906243648276 386.81049057511524L399.1906243648276 318.76613269161226L403.03959814409643 318.76613269161226L403.03959814409643 386.81049057511524L399.1906243648276 386.81049057511524ZM354.24010915693776 340.70528323344473L354.24010915693776 337.02126547328743L367.57405403511916 337.02126547328743L367.57405403511916 340.70528323344473L354.24010915693776 340.70528323344473ZM354.24010915693776 413.8632777094048L421.5971502941427 413.8632777094048L421.5971502941427 398.0274998746987L425.4736167432635 398.0274998746987L425.4736167432635 417.5472954695622L354.24010915693776 417.5472954695622L354.24010915693776 413.8632777094048ZM443.06892544849245 407.10008092583246L443.06892544849245 392.61144391387046L464.32075924402693 392.61144391387046L464.32075924402693 330.258068689715L443.06892544849245 330.258068689715L443.06892544849245 313.8174521182666L485.10521765207875 313.8174521182666L485.10521765207875 328.33358180008054Q487.9919479865305 324.64956403992323 492.0608631246147 321.4604143371005Q496.1297782626989 318.2712646342777 501.1884295154522 315.9618803667164Q506.2745734380575 313.62500342930315 512.2129901260723 312.27786260655904Q518.1514068140871 310.930721783815 524.8321255881037 310.930721783815L524.8321255881037 310.930721783815Q538.4684898346563 310.930721783815 548.1734022923841 316.2368070652356Q557.878314750112 321.57038501650817 563.2118927013846 332.67742363668395L563.2118927013846 332.67742363668395Q566.7859397821343 327.9486844221537 571.5696643363684 323.9347546237733Q576.3533888906026 319.9208248253929 582.0443715499501 317.00660182108936Q587.7628468791495 314.11987148663775 594.2786096340546 312.5252966352263Q600.7943723889598 310.930721783815 607.942466550459 310.930721783815L607.942466550459 310.930721783815Q617.8948130368542 310.930721783815 625.922672633615 313.8174521182666Q633.9505322303758 316.73167512257015 639.6140222198713 322.67009181058495Q645.2500195395149 328.60850849859975 648.3017058930782 337.65359687988155Q651.3533922466413 346.69868526116335 651.3533922466413 358.96041601511985L651.3533922466413 358.96041601511985L651.3533922466413 392.61144391387046L672.6052260421759 392.61144391387046L672.6052260421759 407.10008092583246L614.1283172671411 407.10008092583246L614.1283172671411 392.61144391387046L630.5689338385896 392.61144391387046L630.5689338385896 367.6755923581786Q630.5689338385896 358.575518637193 629.7991390827358 351.8123218536206Q629.0293443268821 345.04912507004815 627.1873354468033 341.3651073098908L627.1873354468033 341.3651073098908Q623.503317686646 333.74963776090885 617.289974300112 330.5604880580861Q611.049138243726 327.37133835526333 602.6363812690385 327.37133835526333L602.6363812690385 327.37133835526333Q597.7976713751004 327.37133835526333 592.7665127921991 329.15836189563817Q587.7628468791495 330.945385436013 583.116585674175 334.13453513883576Q578.4703244692005 337.3236848416585 574.5113800105239 341.66752667826194Q570.5524355518473 346.01136851486535 567.8306612365071 351.0425270977668L567.8306612365071 351.0425270977668Q568.0231099254707 352.96701398740123 568.1330806048784 354.9464862167395Q568.2155586144341 356.92595844607774 568.2155586144341 358.96041601511985L568.2155586144341 358.96041601511985L568.2155586144341 392.61144391387046L584.6561751858825 392.61144391387046L584.6561751858825 407.10008092583246L531.0179763047859 407.10008092583246L531.0179763047859 392.61144391387046L547.4585928762342 392.61144391387046L547.4585928762342 367.1807243008441Q547.4585928762342 359.34531339304675 546.7162907902324 353.2144480160685Q546.0014813740825 347.08358263909025 544.6543405513384 343.59201356789634L544.6543405513384 343.59201356789634Q541.2727421595521 334.7943592152819 534.7844720744989 331.0828487852726Q528.2962019894456 327.37133835526333 519.4985476368312 327.37133835526333L519.4985476368312 327.37133835526333Q514.6873304127452 327.37133835526333 509.7386498393995 329.10337655593435Q504.8174619359057 330.8354147566053 500.226186070635 333.9420864498723Q495.63491020536435 337.02126547328743 491.73095108639166 341.28262930033503Q487.79949929756697 345.54399312738275 485.10521765207875 350.46518103087647L485.10521765207875 350.46518103087647L485.10521765207875 392.61144391387046L501.5458342235272 392.61144391387046L501.5458342235272 407.10008092583246L443.06892544849245 407.10008092583246ZM637.8269986794966 313.8174521182666L637.8269986794966 313.8174521182666Q644.3977467741055 315.4670123093818 649.0165153092281 319.39846409820643Q653.6627765142026 323.3024232171791 656.5769995185062 329.2958252448978Q659.463729852958 335.2892272726164 660.810870675702 343.12463818041374Q662.185504168298 350.9325564183591 662.185504168298 360.30755683786396L662.185504168298 360.30755683786396L662.185504168298 386.81049057511524L658.3090377191772 386.81049057511524L658.3090377191772 359.64773276141784Q658.3090377191772 351.1250051073226 656.989389566285 343.8394475965636Q655.6972340832448 336.55389008580477 653.0854304473123 330.6979514073457Q650.4736268113799 324.8420127288867 646.652145701963 320.60814157169096Q642.8306645925461 316.3467777446433 637.8269986794966 313.8174521182666ZM554.6891650472892 313.8174521182666L554.6891650472892 313.8174521182666Q559.3354262522638 314.42229085500884 562.8544879933096 316.42925575419906Q566.4010424042074 318.46371332324117 568.3255292938418 320.8830682702101L568.3255292938418 320.8830682702101L565.5212769689458 323.4948719061426Q564.9439309020556 322.3401797723619 563.7342534285712 320.8830682702101Q562.5245759550866 319.42595676805837 561.012479113231 318.02383060561044Q559.5278749412273 316.6217044431625 557.8233294104082 315.5219976490857Q556.146276549441 314.42229085500884 554.6891650472892 313.8174521182666ZM575.17120408697 386.81049057511524L575.17120408697 352.96701398740123Q577.590559033939 348.7331428302055 580.7797087367618 345.2415737590116Q583.9688584395844 341.7500046878177 587.6528761997419 339.3031570709968Q591.3368939598992 336.828816784324 595.3783164281315 335.48167596157987Q599.4472315662156 334.13453513883576 603.7085953932633 334.13453513883576L603.7085953932633 334.13453513883576Q610.3618214974281 334.13453513883576 614.6781706641797 336.6363680953605Q618.9670271610792 339.16569372173717 620.8915140507136 343.01466750100604L620.8915140507136 343.01466750100604Q617.8948130368542 340.7877612430005 613.7434198892142 339.3031570709968Q609.5920267415743 337.7910602291412 603.5161467042999 337.7910602291412L603.5161467042999 337.7910602291412Q599.7221582647348 337.7910602291412 596.0106478347255 339.11070838203335Q592.2991374047164 340.4028638650736 589.0550023621897 342.62977012307914Q585.8108673196632 344.8566763810847 583.1990636837307 347.74340671553637Q580.5872600477983 350.6576297198399 579.0476705360908 353.736808743255L579.0476705360908 353.736808743255L579.0476705360908 386.81049057511524L575.17120408697 386.81049057511524ZM492.0608631246147 386.81049057511524L492.0608631246147 352.96701398740123Q494.48021807158364 348.7331428302055 497.6693677744064 345.2415737590116Q500.85851747722927 341.7500046878177 504.54253523738646 339.3031570709968Q508.1990603276919 336.828816784324 512.2679754657761 335.48167596157987Q516.3093979340085 334.13453513883576 520.570761761056 334.13453513883576L520.570761761056 334.13453513883576Q527.2514805350728 334.13453513883576 531.5403370319724 336.6363680953605Q535.8566861987238 339.16569372173717 537.7811730883583 343.01466750100604L537.7811730883583 343.01466750100604Q534.7844720744989 340.7877612430005 530.633078926859 339.3031570709968Q526.481685779219 337.7910602291412 520.3783130720926 337.7910602291412L520.3783130720926 337.7910602291412Q516.6118173023796 337.7910602291412 512.9003068723703 339.11070838203335Q509.1613037725092 340.4028638650736 505.94466139983444 342.62977012307914Q502.7005263573078 344.8566763810847 500.08872272137546 347.74340671553637Q497.476919085443 350.6576297198399 495.9373295737354 353.736808743255L495.9373295737354 353.736808743255L495.9373295737354 386.81049057511524L492.0608631246147 386.81049057511524ZM448.86987878724767 340.70528323344473L448.86987878724767 337.02126547328743L460.2518441059427 337.02126547328743L460.2518441059427 340.70528323344473L448.86987878724767 340.70528323344473ZM619.9292706058964 413.8632777094048L679.5608715147117 413.8632777094048L679.5608715147117 398.0274998746987L683.4373379638324 398.0274998746987L683.4373379638324 417.5472954695622L619.9292706058964 417.5472954695622L619.9292706058964 413.8632777094048ZM536.818929643541 413.8632777094048L591.6118206584183 413.8632777094048L591.6118206584183 398.0274998746987L595.4882871075391 398.0274998746987L595.4882871075391 417.5472954695622L536.818929643541 417.5472954695622L536.818929643541 413.8632777094048ZM448.86987878724767 413.8632777094048L508.50147969606303 413.8632777094048L508.50147969606303 398.0274998746987L512.3504534753318 398.0274998746987L512.3504534753318 417.5472954695622L448.86987878724767 417.5472954695622L448.86987878724767 413.8632777094048Z " fill="lightblue" transform="matrix(0.7984916481989521,0,0,0.7984916481989522,-17.31681921037098,24.173806167236776)"/><path d="M680.8346978316653 340.3310896964781L680.8346978316653 340.3310896964781Q680.8346978316653 325.9072878232251 687.0862673119786 313.14052846282624Q693.3001767351816 300.336109045317 704.485213696947 290.8834347106264Q715.6702506587123 281.4307603759358 731.2991743594956 275.9323920378289Q746.9280980602789 270.43402369972205 765.569826329888 270.43402369972205L765.569826329888 270.43402369972205Q785.1907160843652 270.43402369972205 800.5936794424866 275.6687716380566Q816.0343028577183 280.9035195763913 826.6920990199392 290.16789362553027Q837.34989518216 299.43226767466933 842.9612436915979 312.12370692084755Q848.6102522581461 324.8528062241361 848.6102522581461 339.80384889693363L848.6102522581461 339.80384889693363Q848.6102522581461 354.22765077018664 842.4340028920535 366.4295092739307Q836.2954135830711 378.59370772056445 824.9597363928644 387.4061610843796Q813.6240592026577 396.2186144481947 797.8068352163228 401.18974198675716Q781.989611229988 406.12320946820927 762.5193617039519 406.12320946820927L762.5193617039519 406.12320946820927Q744.1412538341151 406.12320946820927 729.114891047097 400.6625011872126Q714.0885282600789 395.1641328491058 703.3554119836373 386.0127389712977Q692.6222957071958 376.8990051506 686.7473267979857 365.0360871608488Q680.8346978316653 353.17316917109764 680.8346978316653 340.3310896964781ZM701.6230493565625 396.06797421975347L701.6230493565625 396.06797421975347Q714.465128831182 405.33234826889253 730.0187324177448 410.37879592167553Q745.5723360043073 415.4252435744586 765.1932257587847 415.4252435744586L765.1932257587847 415.4252435744586Q783.4583534572905 415.4252435744586 800.2547389284937 410.45411603589616Q817.0887844568073 405.4829884973338 829.9308639314268 395.80435381998126Q842.7729434060464 386.163379199739 850.4555950565518 372.04085778336855Q858.1382467070573 357.95599642410843 858.1382467070573 339.80384889693363L858.1382467070573 339.80384889693363Q858.1382467070573 330.95373547600815 855.6903429948865 321.8776617124207Q853.2424392827156 312.80158794883334 848.7985525436977 304.441055270342Q844.3546658046798 296.118182648961 837.9901161530356 288.8874516837794Q831.6632265585016 281.69438077570805 823.8299346795548 276.647933122925L823.8299346795548 276.647933122925Q832.7177081575906 280.639899176619 840.0614192941032 287.11742899959427Q847.4051304306158 293.59495882256954 852.5645582547298 301.8801713868402Q857.7239860788438 310.16538395111087 860.5861504192283 319.8063585713531Q863.4106547025024 329.4849932487056 863.4106547025024 339.80384889693363L863.4106547025024 339.80384889693363Q863.4106547025024 352.79656859999443 859.7199691056909 363.83096533331855Q855.9916234517691 374.903022123753 849.4387735145732 383.8284556588991Q842.8859235773773 392.7538891940452 833.8475098709002 399.645679645234Q824.7714361073129 406.53747009642274 813.9253396595403 411.09433700677164Q803.0415831546575 415.68886397423086 790.8020645938032 418.06144757218107Q778.5625460329487 420.4340311701313 765.8334467296602 420.4340311701313L765.8334467296602 420.4340311701313Q755.25097068166 420.4340311701313 745.5723360043073 418.7769886572771Q735.9313613840652 417.119946144423 727.6461488197945 414.03182146137664Q719.3609362555238 410.90603672122 712.7704262612176 406.4244899250918Q706.1422562098011 401.90528307185326 701.6230493565625 396.06797421975347ZM710.247202434826 339.80384889693363L710.247202434826 339.80384889693363Q710.247202434826 350.0097243738307 714.1261883171892 358.4079171094323Q718.0428342566626 366.8061098450339 725.1982451076236 372.8317189826853Q732.3536559585846 378.8573281203367 742.3335710928197 382.1714131460449Q752.3511462841652 385.48549817175325 764.5153447307989 385.48549817175325L764.5153447307989 385.48549817175325Q776.830183405874 385.48549817175325 786.8854186543297 382.0960930318243Q796.9783139598958 378.7443479490057 804.2467049821878 372.71873881135434Q811.5150960044798 366.6931296737029 815.5070620581738 358.29493693810133Q819.4613680547575 349.8590841453894 819.4613680547575 339.80384889693363L819.4613680547575 339.80384889693363Q819.4613680547575 329.86159381980883 815.5070620581738 321.086800513104Q811.5150960044798 312.2743471492888 804.3596851535187 305.57085698365165Q797.241934359668 298.9050268751248 787.2243591683226 294.98838093565143Q777.2444440340875 291.071734996178 765.1932257587847 291.071734996178L765.1932257587847 291.071734996178Q752.6147666839374 291.071734996178 742.484211321261 294.8754007643205Q732.3536559585846 298.6414064753526 725.1982451076236 305.19425641254844Q718.0428342566626 311.74710634974434 714.1261883171892 320.5972197706698Q710.247202434826 329.4849932487056 710.247202434826 339.80384889693363ZM719.5115764839651 340.3310896964781L719.5115764839651 340.3310896964781Q719.5115764839651 332.00821707509715 722.8256615096734 324.6645059385845Q726.1397465353816 317.28313474496156 732.165355673033 311.9354066352959Q738.1909648106844 306.58767852563034 746.5891575462861 303.4618937854737Q754.9873502818876 300.336109045317 765.1932257587847 300.336109045317L765.1932257587847 300.336109045317Q771.67075558176 300.336109045317 777.771684833632 301.7295311583989Q783.8349540283937 303.1229532714808 789.032041909618 305.7968173263136Q794.191469733732 308.4330213240361 798.1457757303157 312.1990270350682Q802.1377417840098 315.9650327461003 804.51032538196 320.7478599991111L804.51032538196 320.7478599991111Q795.7731921323655 312.80158794883334 786.2828577405646 309.11090235202187Q776.830183405874 305.3825566981001 764.9296053590124 305.3825566981001L764.9296053590124 305.3825566981001Q756.3054522807489 305.3825566981001 749.0370612584569 308.1694009242638Q741.7310101790546 310.9562451504276 736.3079619551684 315.7014123463281Q730.884913731282 320.4842395993389 727.834449105346 326.84878925098315Q724.78398447941 333.1756788455171 724.78398447941 340.3310896964781L724.78398447941 340.3310896964781Q724.78398447941 346.2813787199089 726.2527267067126 351.4784666011332Q727.7214689340151 356.6378944252472 731.223854245275 361.04412110715475Q734.7262395565349 365.48800784617265 740.5635484086347 369.0657132716532Q746.4008572607345 372.6434186971337 755.137990510329 375.43026292329745L755.137990510329 375.43026292329745Q747.1917184600511 374.903022123753 740.6388685228553 372.04085778336855Q734.0860185856594 369.2163535000945 729.3785114468692 364.58416647552497Q724.6710043080791 359.95197945095543 722.0724603674669 353.70040997064217Q719.5115764839651 347.48650054743916 719.5115764839651 340.3310896964781ZM899.4513293570797 402.16890347162547L899.4513293570797 382.32205337448625L928.562553503358 382.32205337448625L928.562553503358 296.9090438482778L899.4513293570797 296.9090438482778L899.4513293570797 274.38832969630573L957.0335566787608 274.38832969630573L957.0335566787608 294.3858200218863Q961.1385029037858 289.37703242621353 966.900491641665 285.00846580141626Q972.6624803795441 280.639899176619 979.8178912305052 277.4011342651314Q986.9356420243557 274.12470929653347 995.2961747028471 272.27936649812773Q1003.6190473242281 270.43402369972205 1012.7704412020362 270.43402369972205L1012.7704412020362 270.43402369972205Q1026.5540221044137 270.43402369972205 1037.7767191232895 274.3506696391954Q1049.0370761992754 278.22965552155847 1056.9833482495533 286.40188791449816Q1064.929620299831 294.53646025032754 1069.2228668104076 306.92661903962323Q1073.5537733780945 319.27911777180856 1073.5537733780945 336.2261434714531L1073.5537733780945 336.2261434714531L1073.5537733780945 382.32205337448625L1102.664997524373 382.32205337448625L1102.664997524373 402.16890347162547L1022.5620560507198 402.16890347162547L1022.5620560507198 382.32205337448625L1045.0827702026918 382.32205337448625L1045.0827702026918 347.48650054743916Q1045.0827702026918 336.7533842709976 1044.065948660713 328.355191535396Q1043.0867871758446 319.95699879979435 1041.241444377439 315.17417154678355L1041.241444377439 315.17417154678355Q1038.8688607794888 309.11090235202187 1035.2158352397876 304.85531589855555Q1031.5628097000865 300.6373895021996 1027.0059427897374 297.9635254473668Q1022.4490758793887 295.3273214496443 1016.9883675983921 294.122199622114Q1011.5653193745059 292.95473785169406 1005.5020501797442 292.95473785169406L1005.5020501797442 292.95473785169406Q998.9868602996586 292.95473785169406 992.0574097913595 295.3273214496443Q985.09029922595 297.69990504759454 978.5374492887543 301.9931515581712Q971.9845993515582 306.3240581258581 966.3732508421205 312.12370692084755Q960.7242422755724 317.96101577294735 957.0335566787608 324.7021659956948L957.0335566787608 324.7021659956948L957.0335566787608 382.32205337448625L979.5542708307328 382.32205337448625L979.5542708307328 402.16890347162547L899.4513293570797 402.16890347162547ZM1083.0817678270057 374.3757813242085L1083.0817678270057 337.1676448992111Q1083.0817678270057 325.49302719501156 1081.2740850857103 315.51311206077645Q1079.5040624015253 305.53319692654134 1075.9263569760446 297.5116047620429Q1072.3486515505642 289.4900125975445 1067.1139036122297 283.69036380255505Q1061.879155673895 277.8530549504553 1054.987365222706 274.38832969630573L1054.987365222706 274.38832969630573Q1064.0257789291834 276.647933122925 1070.3526685237173 282.0333212897009Q1076.7172181753615 287.38104939936653 1080.6715241719453 295.59094184941654Q1084.6634902256392 303.80083429946654 1086.508833024045 314.53395057590814Q1088.3541758224508 325.2294067952393 1088.3541758224508 338.07148626985884L1088.3541758224508 338.07148626985884L1088.3541758224508 374.3757813242085L1083.0817678270057 374.3757813242085ZM966.561551127672 374.3757813242085L966.561551127672 328.0162510214031Q969.8756361533804 322.2166022264136 974.4325030637292 317.4337749734028Q978.989369974078 312.650947720392 984.374758140854 309.29920263757344Q989.7224862505195 305.90979749764455 995.63511521684 304.0644546992388Q1001.5100841260501 302.21911190083307 1007.3473929781499 302.21911190083307L1007.3473929781499 302.21911190083307Q1016.4611267988475 302.21911190083307 1022.1854554796165 305.64617709787234Q1027.872124103275 309.11090235202187 1030.5083281009975 314.3833103474668L1030.5083281009975 314.3833103474668Q1026.4033818759724 311.3328457215308 1020.9050135378656 309.2238825233528Q1015.4066451997586 307.11491932517487 1007.0837725783776 307.11491932517487L1007.0837725783776 307.11491932517487Q1001.9243447542636 307.11491932517487 996.6142767017084 309.03558223780124Q991.3042086491531 310.9562451504276 986.5590414532526 314.11968994769455Q981.7762142002418 317.28313474496156 977.9348883749891 321.38808096998656Q974.0935625497364 325.49302719501156 971.8716191802273 329.7486136484779L971.8716191802273 329.7486136484779L971.8716191802273 374.3757813242085L966.561551127672 374.3757813242085ZM907.3976014073575 311.21986555019987L907.3976014073575 306.1734178974168L922.9888650510304 306.1734178974168L922.9888650510304 311.21986555019987L907.3976014073575 311.21986555019987ZM1030.5083281009975 411.43327752076453L1112.192991973284 411.43327752076453L1112.192991973284 389.7410846252195L1117.5030600258392 389.7410846252195L1117.5030600258392 416.4797251735476L1030.5083281009975 416.4797251735476L1030.5083281009975 411.43327752076453ZM907.3976014073575 411.43327752076453L989.0822652796442 411.43327752076453L989.0822652796442 389.7410846252195L994.3546732750891 389.7410846252195L994.3546732750891 416.4797251735476L907.3976014073575 416.4797251735476L907.3976014073575 411.43327752076453Z " fill="orange" transform="matrix(0.7984916481989521,0,0,0.7984916481989522,-17.31681921037098,24.173806167236776)"/></g></svg>